<svg width="1280" height="720" xmlns="http://www.w3.org/2000/svg" xmlns:xlink="http://www.w3.org/1999/xlink" overflow="hidden"><defs><clipPath id="clip0"><rect x="0" y="0" width="1280" height="720"/></clipPath><linearGradient x1="332.344" y1="-186.944" x2="947.656" y2="906.944" gradientUnits="userSpaceOnUse" spreadMethod="reflect" id="fill1"><stop offset="0" stop-color="#E90959"/><stop offset="0.52" stop-color="#7030A0"/><stop offset="1" stop-color="#1D41F7"/></linearGradient></defs><g clip-path="url(#clip0)"><rect x="0" y="0" width="1280" height="720" fill="url(#fill1)"/><path d="" fill="#FFFFFF" transform="translate(15.0831 375)"/><path d="M176.893-149.666C180.736-149.666 184.34-148.932 187.703-147.464 191.066-145.996 194.003-144.007 196.512-141.498 199.021-138.989 201.009-136.053 202.478-132.689 203.946-129.326 204.68-125.723 204.68-121.879 204.68-118.195 203.972-114.659 202.558-111.269 201.143-107.879 199.128-104.876 196.512-102.26L74.7129 19.6191C73.3783 20.9538 71.8568 21.888 70.1484 22.4219L35.7148 33.873C34.4336 34.3001 33.179 34.5137 31.9512 34.5137 30.403 34.5137 28.9349 34.2067 27.5469 33.5928 26.1589 32.9788 24.9443 32.1514 23.9033 31.1104 22.8623 30.0693 22.0348 28.8548 21.4209 27.4668 20.807 26.0788 20.5 24.6107 20.5 23.0625 20.5 21.8346 20.7135 20.5801 21.1406 19.2988L32.5918-15.1348C33.1256-16.8431 34.0599-18.3646 35.3945-19.6992L157.273-141.498C162.719-146.943 169.258-149.666 176.893-149.666Z" transform="translate(15.0831 375)"/><path d="M37.7969 5.76562 52.5312 2.96289 49.3281 17.2168 32.0312 22.9824Z" fill="#757575" transform="translate(15.0831 375)"/><path d="M59.5781-18.498 72.791-3.44336 66.5449 11.5312 49.3281 17.2168 37.7969 5.76562 43.5625-11.5312Z" fill="#F2D6C9" transform="translate(15.0831 375)"/><path d="M141.418-109.387 151.268-109.387 164.48-96.2539 164.48-86.3242 66.5449 11.5312 66.5449 0 55.0137 0 55.0137-11.5312 43.5625-11.5312Z" fill="#FFB900" transform="translate(15.0831 375)"/><path d="M193.148-121.879C193.148-119.797 192.801-117.915 192.107-116.233 191.413-114.552 190.533-113.004 189.465-111.589 188.397-110.174 187.169-108.826 185.781-107.545 184.393-106.264 183.032-104.956 181.697-103.621L172.088-102.74 158.715-116.994 158.715-126.604C160.049-127.938 161.344-129.299 162.599-130.688 163.853-132.076 165.188-133.317 166.603-134.411 168.017-135.506 169.565-136.4 171.247-137.094 172.929-137.788 174.811-138.135 176.893-138.135 179.135-138.135 181.243-137.708 183.219-136.854 185.194-135.999 186.916-134.838 188.384-133.37 189.852-131.902 191.013-130.18 191.867-128.205 192.721-126.23 193.148-124.121 193.148-121.879Z" fill="#E84757" transform="translate(15.0831 375)"/><path d="M158.635-126.604 181.697-103.621 175.852-97.8555 168.725-99.0566 170.166-92.0898 164.4-86.3242 141.418-109.387 147.104-115.152 153.35-114.432 152.869-120.838Z" fill="#CCCCCC" transform="translate(15.0831 375)"/><path d="M147.104-115.152 152.869-120.918 175.932-97.8555 170.166-92.0898Z" fill="#E5E5E5" transform="translate(15.0831 375)"/><text fill="#FFFFFF" font-family="Montserrat,Montserrat_MSFontService,sans-serif" font-weight="400" font-size="164" transform="translate(283.25 375)">NotoCourse<tspan font-family="Palatino Linotype,Palatino Linotype_MSFontService,sans-serif" font-size="59" x="-143.583" y="207">Create your own site with Notion and </tspan><tspan font-family="Palatino Linotype,Palatino Linotype_MSFontService,sans-serif" font-size="59" x="-122.07" y="277">Github Pages with a custom domain </tspan></text></g></svg>